<svg xmlns="http://www.w3.org/2000/svg" viewBox="0 0 1000 400" width="1000" height="400">
  <defs>
    <linearGradient id="ah-sky" x1="0" y1="0" x2="0" y2="1">
      <stop offset="0%" stop-color="#5B93D0"/>
      <stop offset="100%" stop-color="#A0CBE8"/>
    </linearGradient>
    <linearGradient id="ah-warm" x1="0" y1="0" x2="1" y2="1">
      <stop offset="0%" stop-color="#F0A040" stop-opacity="0.08"/>
      <stop offset="100%" stop-color="transparent" stop-opacity="0"/>
    </linearGradient>
  </defs>
  <!-- Sky -->
  <rect width="1000" height="400" fill="url(#ah-sky)"/>
  <!-- Clouds -->
  <ellipse cx="150" cy="60" rx="80" ry="25" fill="white" opacity="0.5"/>
  <ellipse cx="200" cy="55" rx="60" ry="20" fill="white" opacity="0.4"/>
  <ellipse cx="700" cy="45" rx="90" ry="28" fill="white" opacity="0.4"/>
  <ellipse cx="750" cy="50" rx="50" ry="18" fill="white" opacity="0.3"/>
  <!-- Distant tree line -->
  <path d="M0,230 Q50,215 100,222 Q150,210 200,218 Q300,205 400,215 Q500,200 600,212 Q700,205 800,215 Q900,208 1000,218 L1000,250 L0,250Z" fill="#4CAF50" opacity="0.3"/>
  <!-- Ground -->
  <rect x="0" y="245" width="1000" height="155" fill="#78909C"/>
  <!-- Three buildings representing three locations -->
  <!-- Building 1 (Asheville) -->
  <rect x="50" y="150" width="250" height="98" fill="#CCBA98" rx="3"/>
  <rect x="45" y="143" width="260" height="10" fill="#37474F" rx="2"/>
  <!-- Doors -->
  <rect x="70" y="175" width="50" height="73" fill="#6B7C8C" rx="2"/>
  <rect x="140" y="175" width="50" height="73" fill="#6B7C8C" rx="2"/>
  <rect x="210" y="175" width="50" height="73" fill="#6B7C8C" rx="2"/>
  <g opacity="0.2">
    <line x1="70" y1="190" x2="120" y2="190" stroke="#4A5568"/>
    <line x1="70" y1="205" x2="120" y2="205" stroke="#4A5568"/>
    <line x1="70" y1="220" x2="120" y2="220" stroke="#4A5568"/>
    <line x1="70" y1="235" x2="120" y2="235" stroke="#4A5568"/>
    <line x1="140" y1="190" x2="190" y2="190" stroke="#4A5568"/>
    <line x1="140" y1="205" x2="190" y2="205" stroke="#4A5568"/>
    <line x1="140" y1="220" x2="190" y2="220" stroke="#4A5568"/>
    <line x1="140" y1="235" x2="190" y2="235" stroke="#4A5568"/>
    <line x1="210" y1="190" x2="260" y2="190" stroke="#4A5568"/>
    <line x1="210" y1="205" x2="260" y2="205" stroke="#4A5568"/>
    <line x1="210" y1="220" x2="260" y2="220" stroke="#4A5568"/>
    <line x1="210" y1="235" x2="260" y2="235" stroke="#4A5568"/>
  </g>
  <!-- Building 2 (Durham - modern) -->
  <rect x="380" y="140" width="250" height="108" fill="#B0BEC5" rx="3"/>
  <rect x="375" y="133" width="260" height="10" fill="#455A64"/>
  <rect x="400" y="165" width="55" height="83" fill="#607D8B" rx="2"/>
  <rect x="475" y="165" width="55" height="83" fill="#607D8B" rx="2"/>
  <rect x="555" y="165" width="55" height="83" fill="#607D8B" rx="2"/>
  <g opacity="0.2">
    <line x1="400" y1="180" x2="455" y2="180" stroke="#37474F"/>
    <line x1="400" y1="195" x2="455" y2="195" stroke="#37474F"/>
    <line x1="400" y1="210" x2="455" y2="210" stroke="#37474F"/>
    <line x1="400" y1="225" x2="455" y2="225" stroke="#37474F"/>
    <line x1="475" y1="180" x2="530" y2="180" stroke="#37474F"/>
    <line x1="475" y1="195" x2="530" y2="195" stroke="#37474F"/>
    <line x1="475" y1="210" x2="530" y2="210" stroke="#37474F"/>
    <line x1="475" y1="225" x2="530" y2="225" stroke="#37474F"/>
    <line x1="555" y1="180" x2="610" y2="180" stroke="#37474F"/>
    <line x1="555" y1="195" x2="610" y2="195" stroke="#37474F"/>
    <line x1="555" y1="210" x2="610" y2="210" stroke="#37474F"/>
    <line x1="555" y1="225" x2="610" y2="225" stroke="#37474F"/>
  </g>
  <!-- Building 3 (Columbia) -->
  <rect x="710" y="148" width="240" height="100" fill="#D4C4A0" rx="3"/>
  <rect x="705" y="141" width="250" height="10" fill="#455A64" rx="2"/>
  <rect x="730" y="170" width="50" height="78" fill="#6B7C8C" rx="2"/>
  <rect x="800" y="170" width="50" height="78" fill="#6B7C8C" rx="2"/>
  <rect x="870" y="170" width="50" height="78" fill="#6B7C8C" rx="2"/>
  <g opacity="0.2">
    <line x1="730" y1="185" x2="780" y2="185" stroke="#4A5568"/>
    <line x1="730" y1="200" x2="780" y2="200" stroke="#4A5568"/>
    <line x1="730" y1="215" x2="780" y2="215" stroke="#4A5568"/>
    <line x1="730" y1="230" x2="780" y2="230" stroke="#4A5568"/>
    <line x1="800" y1="185" x2="850" y2="185" stroke="#4A5568"/>
    <line x1="800" y1="200" x2="850" y2="200" stroke="#4A5568"/>
    <line x1="800" y1="215" x2="850" y2="215" stroke="#4A5568"/>
    <line x1="800" y1="230" x2="850" y2="230" stroke="#4A5568"/>
    <line x1="870" y1="185" x2="920" y2="185" stroke="#4A5568"/>
    <line x1="870" y1="200" x2="920" y2="200" stroke="#4A5568"/>
    <line x1="870" y1="215" x2="920" y2="215" stroke="#4A5568"/>
    <line x1="870" y1="230" x2="920" y2="230" stroke="#4A5568"/>
  </g>
  <!-- Location labels -->
  <rect x="120" y="260" width="100" height="18" fill="#1B2A4A" rx="3" opacity="0.85"/>
  <text x="170" y="273" font-family="Arial" font-size="10" fill="white" text-anchor="middle" font-weight="bold">Asheville, NC</text>
  <rect x="450" y="260" width="100" height="18" fill="#1B2A4A" rx="3" opacity="0.85"/>
  <text x="500" y="273" font-family="Arial" font-size="10" fill="white" text-anchor="middle" font-weight="bold">Durham, NC</text>
  <rect x="780" y="260" width="100" height="18" fill="#1B2A4A" rx="3" opacity="0.85"/>
  <text x="830" y="273" font-family="Arial" font-size="10" fill="white" text-anchor="middle" font-weight="bold">Columbia, SC</text>
  <!-- Parking areas -->
  <g fill="#A0A8B0">
    <rect x="80" y="290" width="2" height="20"/>
    <rect x="130" y="290" width="2" height="20"/>
    <rect x="180" y="290" width="2" height="20"/>
    <rect x="230" y="290" width="2" height="20"/>
    <rect x="420" y="290" width="2" height="20"/>
    <rect x="470" y="290" width="2" height="20"/>
    <rect x="520" y="290" width="2" height="20"/>
    <rect x="570" y="290" width="2" height="20"/>
    <rect x="740" y="290" width="2" height="20"/>
    <rect x="790" y="290" width="2" height="20"/>
    <rect x="840" y="290" width="2" height="20"/>
    <rect x="890" y="290" width="2" height="20"/>
  </g>
  <!-- Trees between buildings -->
  <circle cx="335" cy="225" r="18" fill="#43A047" opacity="0.7"/>
  <circle cx="330" cy="218" r="14" fill="#66BB6A" opacity="0.8"/>
  <rect x="333" y="235" width="4" height="15" fill="#5D4037"/>
  <circle cx="670" cy="228" r="16" fill="#43A047" opacity="0.7"/>
  <circle cx="665" cy="222" r="12" fill="#66BB6A" opacity="0.8"/>
  <rect x="668" y="236" width="4" height="14" fill="#5D4037"/>
  <!-- Warm overlay -->
  <rect width="1000" height="400" fill="url(#ah-warm)"/>
</svg>