<svg xmlns="http://www.w3.org/2000/svg" viewBox="0 0 400 267" width="400" height="267">
  <defs>
    <linearGradient id="sky5" x1="0" y1="0" x2="0" y2="1">
      <stop offset="0%" stop-color="#4A90D9"/>
      <stop offset="100%" stop-color="#87CEEB"/>
    </linearGradient>
  </defs>
  <!-- Sky -->
  <rect width="400" height="267" fill="url(#sky5)"/>
  <!-- Distant hills -->
  <ellipse cx="100" cy="115" rx="120" ry="30" fill="#7CB342" opacity="0.3"/>
  <ellipse cx="300" cy="118" rx="140" ry="28" fill="#689F38" opacity="0.25"/>
  <!-- Ground -->
  <rect x="0" y="185" width="400" height="82" fill="#78909C"/>
  <!-- Driveway approach -->
  <rect x="0" y="185" width="400" height="20" fill="#90A4AE" opacity="0.5"/>
  <!-- Full property - L-shaped building -->
  <!-- Main wing -->
  <rect x="20" y="80" width="300" height="108" fill="#CCBA98" rx="3"/>
  <!-- Side wing -->
  <rect x="280" y="60" width="100" height="128" fill="#C4B08A" rx="3"/>
  <!-- Roofs -->
  <rect x="15" y="73" width="310" height="10" fill="#37474F" rx="2"/>
  <rect x="275" y="53" width="110" height="10" fill="#37474F" rx="2"/>
  <!-- Brick texture main -->
  <g opacity="0.1">
    <line x1="20" y1="100" x2="320" y2="100" stroke="#6D5030"/>
    <line x1="20" y1="120" x2="320" y2="120" stroke="#6D5030"/>
    <line x1="20" y1="140" x2="320" y2="140" stroke="#6D5030"/>
    <line x1="20" y1="160" x2="320" y2="160" stroke="#6D5030"/>
    <line x1="280" y1="80" x2="380" y2="80" stroke="#6D5030"/>
    <line x1="280" y1="100" x2="380" y2="100" stroke="#6D5030"/>
  </g>
  <!-- Main wing doors (4 bays) -->
  <rect x="35" y="110" width="50" height="78" fill="#6B7C8C" rx="2"/>
  <rect x="100" y="110" width="50" height="78" fill="#6B7C8C" rx="2"/>
  <rect x="165" y="110" width="50" height="78" fill="#6B7C8C" rx="2"/>
  <rect x="230" y="110" width="50" height="78" fill="#6B7C8C" rx="2"/>
  <!-- Door lines -->
  <g opacity="0.2">
    <line x1="35" y1="125" x2="85" y2="125" stroke="#4A5568"/>
    <line x1="35" y1="140" x2="85" y2="140" stroke="#4A5568"/>
    <line x1="35" y1="155" x2="85" y2="155" stroke="#4A5568"/>
    <line x1="35" y1="170" x2="85" y2="170" stroke="#4A5568"/>
    <line x1="100" y1="125" x2="150" y2="125" stroke="#4A5568"/>
    <line x1="100" y1="140" x2="150" y2="140" stroke="#4A5568"/>
    <line x1="100" y1="155" x2="150" y2="155" stroke="#4A5568"/>
    <line x1="100" y1="170" x2="150" y2="170" stroke="#4A5568"/>
    <line x1="165" y1="125" x2="215" y2="125" stroke="#4A5568"/>
    <line x1="165" y1="140" x2="215" y2="140" stroke="#4A5568"/>
    <line x1="165" y1="155" x2="215" y2="155" stroke="#4A5568"/>
    <line x1="165" y1="170" x2="215" y2="170" stroke="#4A5568"/>
    <line x1="230" y1="125" x2="280" y2="125" stroke="#4A5568"/>
    <line x1="230" y1="140" x2="280" y2="140" stroke="#4A5568"/>
    <line x1="230" y1="155" x2="280" y2="155" stroke="#4A5568"/>
    <line x1="230" y1="170" x2="280" y2="170" stroke="#4A5568"/>
  </g>
  <!-- Side wing - office/entry glass -->
  <rect x="300" y="90" width="40" height="55" fill="#90C8E0" opacity="0.85" rx="2"/>
  <rect x="318" y="90" width="3" height="55" fill="#5A7A8A"/>
  <rect x="300" y="155" width="40" height="33" fill="#6B7C8C" rx="2"/>
  <g opacity="0.2">
    <line x1="300" y1="165" x2="340" y2="165" stroke="#4A5568"/>
    <line x1="300" y1="175" x2="340" y2="175" stroke="#4A5568"/>
  </g>
  <rect x="350" y="105" width="25" height="83" fill="#6B7C8C" rx="2"/>
  <g opacity="0.2">
    <line x1="350" y1="120" x2="375" y2="120" stroke="#4A5568"/>
    <line x1="350" y1="135" x2="375" y2="135" stroke="#4A5568"/>
    <line x1="350" y1="150" x2="375" y2="150" stroke="#4A5568"/>
    <line x1="350" y1="165" x2="375" y2="165" stroke="#4A5568"/>
  </g>
  <!-- Parking lot markings -->
  <rect x="40" y="205" width="2" height="30" fill="#B0B8C0"/>
  <rect x="90" y="205" width="2" height="30" fill="#B0B8C0"/>
  <rect x="140" y="205" width="2" height="30" fill="#B0B8C0"/>
  <rect x="190" y="205" width="2" height="30" fill="#B0B8C0"/>
  <rect x="240" y="205" width="2" height="30" fill="#B0B8C0"/>
  <rect x="290" y="205" width="2" height="30" fill="#B0B8C0"/>
  <rect x="340" y="205" width="2" height="30" fill="#B0B8C0"/>
  <!-- Vehicles -->
  <rect x="50" y="210" width="28" height="14" fill="#EF5350" rx="3"/>
  <circle cx="57" cy="226" r="3" fill="#2D3748"/>
  <circle cx="73" cy="226" r="3" fill="#2D3748"/>
  <rect x="200" y="208" width="30" height="16" fill="#FFFFFF" rx="3"/>
  <circle cx="207" cy="226" r="3" fill="#2D3748"/>
  <circle cx="225" cy="226" r="3" fill="#2D3748"/>
  <rect x="300" y="210" width="28" height="14" fill="#424242" rx="3"/>
  <circle cx="307" cy="226" r="3" fill="#2D3748"/>
  <circle cx="323" cy="226" r="3" fill="#2D3748"/>
  <!-- Curb/walkway -->
  <rect x="20" y="185" width="360" height="5" fill="#A0A0A0"/>
  <!-- Trees -->
  <circle cx="10" cy="165" r="15" fill="#43A047" opacity="0.7"/>
  <circle cx="5" cy="160" r="12" fill="#66BB6A" opacity="0.8"/>
  <rect x="8" y="170" width="4" height="18" fill="#5D4037"/>
</svg>